<svg width="160" height="160" viewBox="0 0 160 160" fill="none" xmlns="http://www.w3.org/2000/svg">
<rect width="160" height="160" fill="white"/>
<path d="M133.759 41.779C103.932 36.6341 91.0654 51.769 87.1223 56.322C85.7228 64.3543 88.1734 71.6007 88.1734 71.6007C88.1734 71.6007 83.4567 67.3778 82.5068 62.569C71.3324 76.5024 57.5448 84.5183 45.3454 80.6976C45.3782 80.6937 45.409 80.6899 45.3445 80.6972C45.2728 80.7063 45.3104 80.702 45.3454 80.6976C51.0226 83.9441 56.4215 86.2711 62.0668 87.5531C67.1075 88.6971 71.4558 89.0009 76.5008 87.8749C76.5319 87.868 76.5631 87.8611 76.5943 87.8538C82.6041 86.5109 89.2428 83.1029 94.4962 79.8482C105.028 73.3026 113.629 63.8894 120.294 53.3892C120.434 53.1697 120.723 53.1062 120.938 53.247C121.154 53.3866 121.218 53.6739 121.084 53.8934L121.079 53.8999C114.536 64.6135 106.001 74.3253 95.3274 81.2226C90.276 84.4768 84.3357 88.0823 78.4595 89.6273H78.4663C97.1743 89.6273 112.757 83.1755 124.286 71.4668C122.101 71.4668 116.947 68.814 116.947 68.814C116.947 68.814 124.229 67.5956 128.855 65.971C136.962 55.9992 135.221 44.3121 133.759 41.779Z" fill="#60605F"/>
<path d="M37.1047 105.402V120.981C37.0864 121.568 37.2311 122.013 37.5398 122.316C37.848 122.619 38.3014 122.77 38.8995 122.77H40.1778L40.4497 124.559C39.9604 124.797 39.1536 124.917 38.0295 124.917C37.0317 124.917 36.2432 124.619 35.6626 124.022C35.0824 123.427 34.7925 122.587 34.7925 121.504V105.402" fill="#60605F"/>
<path d="M44.6114 117.293H50.2144C51.1758 117.293 51.6561 116.632 51.6561 115.311C51.6378 114.448 51.3842 113.834 50.8945 113.466C50.4048 113.1 49.5706 112.916 48.3918 112.916C46.9958 112.916 46.0262 113.223 45.4819 113.838C44.938 114.453 44.6477 115.604 44.6114 117.293ZM50.8134 119.109H44.6387C44.7651 120.65 45.1374 121.688 45.7539 122.22C46.3699 122.752 47.395 123.018 48.8273 123.018C50.3327 123.018 51.864 122.908 53.424 122.687L53.6687 124.256C52.4899 124.752 50.7762 125 48.528 125C46.2435 125 44.6157 124.463 43.6457 123.389C42.6757 122.316 42.1907 120.495 42.1907 117.925C42.1907 115.338 42.662 113.526 43.6047 112.489C44.5478 111.453 46.1074 110.934 48.2834 110.934C50.2592 110.934 51.701 111.297 52.6082 112.021C53.515 112.747 53.9684 113.843 53.9684 115.311C54.0042 117.843 52.9523 119.109 50.8134 119.109Z" fill="#60605F"/>
<path d="M69.1448 111.264L64.3034 124.091C64.1579 124.477 63.8863 124.67 63.4876 124.67H61.3935C60.9939 124.67 60.722 124.477 60.5768 124.091L55.7359 111.264H58.2108L61.4746 120.65C61.6561 121.164 61.9191 121.945 62.2636 122.991H62.6171L66.6968 111.264" fill="#60605F"/>
<path d="M74.1765 124.669H71.892V111.264H74.1765V124.669ZM72.4901 105.566H73.5784C74.0493 105.566 74.2854 105.805 74.2854 106.283V107.851C74.2854 108.329 74.0493 108.567 73.5784 108.567H72.4901C72.0188 108.567 71.7831 108.329 71.7831 107.851V106.283C71.7831 105.805 72.0188 105.566 72.4901 105.566Z" fill="#60605F"/>
<path d="M81.8467 113.108V120.981C81.8467 121.623 81.982 122.082 82.254 122.357C82.5263 122.632 82.9883 122.77 83.6415 122.77H85.654L85.926 124.559C85.0917 124.797 84.0944 124.917 82.9345 124.917C81.8283 124.917 80.9847 124.605 80.4045 123.982C79.8243 123.357 79.534 122.458 79.534 121.283V113.108H77.1406V111.402L79.534 111.292V107.3H81.8467V111.264H86.0621V113.108" fill="#60605F"/>
<path d="M90.5223 120.045V120.898C90.5223 121.596 90.6858 122.106 91.012 122.426C91.339 122.747 91.8641 122.908 92.5895 122.908C93.279 122.926 94.0632 122.761 94.9423 122.412C95.8217 122.064 96.6244 121.559 97.3497 120.898V118.201H92.236C91.6191 118.219 91.1798 118.385 90.9168 118.696C90.6538 119.009 90.5223 119.458 90.5223 120.045ZM88.9721 113.274L88.7548 111.539C91.1845 111.136 93.3148 110.934 95.1468 110.934C96.6875 110.934 97.83 111.26 98.5733 111.911C99.317 112.563 99.6884 113.669 99.6884 115.228V124.67H97.8663L97.5948 122.467C96.9595 123.109 96.1663 123.678 95.2146 124.174C94.2626 124.67 93.2328 124.917 92.1271 124.917C90.9121 124.917 89.9468 124.592 89.2308 123.94C88.514 123.289 88.1567 122.366 88.1567 121.173V119.715C88.1567 118.669 88.4782 117.857 89.122 117.279C89.7658 116.7 90.6674 116.412 91.8287 116.412H97.3497V115.228C97.3497 114.384 97.1593 113.788 96.7785 113.439C96.3977 113.09 95.6902 112.916 94.6571 112.916C93.3511 112.916 91.4564 113.036 88.9721 113.274Z" fill="#60605F"/>
<path d="M107.142 113.108V120.981C107.142 121.623 107.277 122.082 107.549 122.357C107.821 122.632 108.284 122.77 108.936 122.77H110.949L111.221 124.559C110.387 124.797 109.389 124.917 108.229 124.917C107.123 124.917 106.28 124.605 105.7 123.982C105.119 123.357 104.829 122.458 104.829 121.283V113.108H102.436V111.402L104.829 111.292V107.3H107.142V111.264H111.357V113.108" fill="#60605F"/>
<path d="M115.953 117.293H121.556C122.518 117.293 122.999 116.632 122.999 115.311C122.98 114.448 122.726 113.834 122.237 113.466C121.747 113.1 120.913 112.916 119.734 112.916C118.338 112.916 117.368 113.223 116.824 113.838C116.281 114.453 115.99 115.604 115.953 117.293ZM122.155 119.109H115.981C116.108 120.65 116.479 121.688 117.096 122.22C117.712 122.752 118.737 123.018 120.17 123.018C121.675 123.018 123.207 122.908 124.766 122.687L125.011 124.256C123.832 124.752 122.119 125 119.87 125C117.586 125 115.958 124.463 114.988 123.389C114.018 122.316 113.533 120.495 113.533 117.925C113.533 115.338 114.004 113.526 114.947 112.489C115.89 111.453 117.45 110.934 119.625 110.934C121.602 110.934 123.043 111.297 123.95 112.021C124.857 112.747 125.31 113.843 125.31 115.311C125.347 117.843 124.294 119.109 122.155 119.109Z" fill="#60605F"/>
<path d="M75.4546 63.5561C75.4533 63.5565 75.4491 63.5582 75.4491 63.5582C75.4491 63.5582 72.2164 61.9298 68.8364 61.941C68.8364 61.941 71.3621 61.4485 73.4668 61.792C68.9226 57.4624 66.8166 53.6305 57.2018 52.5404C57.2018 52.5404 60.595 51.8046 65.0248 53.3725C62.2173 48.5983 47.8918 36.4731 32.189 35.5049C31.7467 34.6296 31.321 33.7464 30.9176 32.8538C30.1594 31.1723 29.4456 29.4237 28.894 27.7214L28.8816 27.6834C28.8773 27.6709 28.873 27.6579 28.8683 27.6454C28.6758 27.1299 28.1067 26.8698 27.5974 27.0647C27.0881 27.2596 26.8311 27.8351 27.0236 28.3509C27.7139 30.2006 28.5055 31.905 29.3657 33.6147C29.7615 34.3971 30.1752 35.1692 30.5995 35.9352C28.762 38.7215 20.5275 52.8061 28.2425 64.8311C28.2425 64.8311 27.1577 62.037 29.2103 58.2971C29.2103 58.2971 26.4993 66.4815 36.3968 73.8757L37.5341 74.7087C43.4812 78.8452 51.7358 80.6736 58.6862 78.6603C60.2966 78.1941 61.8408 77.6069 63.3047 76.9437L63.3329 76.9308C64.1052 76.5799 64.8455 76.2023 65.5589 75.8078C62.4333 74.2265 58.6973 71.8049 55.8996 69.6658C51.0301 65.9436 46.6793 61.4969 43.0035 56.5702C42.5121 55.9117 39.7131 52.9565 40.5469 52.1481C40.7916 51.9113 41.1967 52.0898 41.4623 52.3028C42.1095 52.8217 42.6184 53.4926 43.1226 54.1545C46.8364 59.0307 50.8675 63.62 55.4731 67.6558C58.5812 70.3791 62.6344 73.3905 66.2249 75.4259C71.2267 72.51 73.8088 69.6783 75.5357 67.947L77.9171 65.391C77.0056 64.7792 76.1966 64.1657 75.4546 63.5561Z" fill="#60605F"/>
</svg>
